<svg xmlns="http://www.w3.org/2000/svg" version="1.0" width="953.000000pt" height="1280.000000pt" viewBox="0 0 953.000000 1280.000000" preserveAspectRatio="xMidYMid meet">
<g transform="translate(0.000000,1280.000000) scale(0.100000,-0.100000)" fill="#000000" stroke="none">
<path d="M5265 12459 c-208 -13 -417 -30 -495 -39 -41 -5 -120 -14 -175 -20 -105 -12 -199 -24 -300 -40 -374 -58 -495 -82 -890 -172 -22 -5 -58 -11 -81 -14 l-40 -6 -60 88 c-68 101 -122 143 -208 164 -53 12 -62 12 -124 -8 -163 -53 -550 -357 -711 -558 -50 -64 -97 -92 -356 -214 -903 -425 -1144 -566 -1387 -811 -235 -237 -356 -464 -358 -667 0 -95 37 -150 116 -171 87 -23 170 9 413 163 499 315 884 519 1246 660 222 87 206 82 221 61 8 -10 14 -26 14 -34 0 -9 7 -36 16 -61 45 -129 79 -468 88 -885 7 -311 -12 -1051 -39 -1490 -3 -49 -10 -166 -15 -260 -15 -244 -35 -535 -60 -870 -21 -275 -63 -784 -80 -975 -5 -58 -14 -159 -20 -225 -10 -114 -17 -189 -40 -447 -6 -62 -15 -160 -20 -218 -5 -58 -14 -157 -20 -220 -13 -141 -26 -287 -40 -445 -6 -66 -15 -160 -21 -210 -5 -49 -12 -128 -15 -175 -3 -47 -7 -87 -9 -90 -2 -3 -7 -57 -10 -120 -4 -63 -9 -117 -10 -120 -2 -3 -6 -51 -10 -105 -3 -55 -10 -139 -16 -187 -5 -48 -8 -91 -7 -95 1 -5 -2 -53 -6 -108 -4 -55 -10 -129 -12 -165 -2 -36 -8 -117 -13 -180 -5 -63 -9 -124 -9 -135 0 -11 -5 -108 -11 -215 -19 -333 -20 -910 -1 -1050 5 -36 12 -87 15 -114 3 -27 7 -51 9 -55 2 -3 7 -24 10 -45 4 -22 13 -65 22 -95 124 -451 433 -830 849 -1039 353 -178 721 -219 1360 -151 117 12 359 46 430 59 400 77 657 144 995 256 928 311 1727 753 2545 1408 257 206 540 475 696 661 291 349 468 685 560 1063 75 312 88 649 34 897 -79 367 -245 662 -544 969 -264 271 -576 503 -996 741 -197 112 -636 325 -860 417 -388 160 -627 272 -743 347 -73 48 -98 91 -87 150 18 98 101 180 525 519 514 411 609 490 795 656 424 380 725 748 899 1099 216 437 270 864 168 1347 -151 715 -723 1243 -1585 1463 -245 63 -369 83 -677 112 -175 16 -640 18 -865 4z m195 -998 c41 -6 82 -13 90 -16 8 -2 31 -7 50 -10 174 -29 431 -115 614 -207 459 -230 722 -573 791 -1032 34 -226 8 -544 -60 -751 -160 -483 -486 -893 -1014 -1274 -231 -167 -406 -273 -795 -480 -549 -293 -961 -571 -1019 -687 -53 -108 -43 -229 32 -379 96 -194 220 -267 826 -485 386 -139 648 -238 750 -285 17 -7 59 -25 95 -40 76 -32 463 -229 600 -305 467 -262 660 -398 885 -625 291 -293 428 -608 450 -1035 9 -173 -16 -427 -54 -540 -5 -14 -19 -59 -32 -100 -31 -97 -141 -322 -211 -430 -110 -170 -292 -388 -414 -496 -250 -220 -418 -346 -562 -418 l-74 -37 7 43 c21 123 -5 499 -45 658 -5 19 -14 55 -20 80 -51 211 -190 505 -299 635 -93 111 -123 142 -180 188 -94 75 -165 115 -266 150 -81 27 -102 31 -210 31 -104 0 -130 -3 -197 -27 -207 -71 -381 -234 -526 -490 -81 -142 -161 -394 -193 -610 -31 -207 -29 -532 4 -682 23 -100 68 -236 107 -318 15 -32 23 -60 18 -63 -17 -11 -464 -6 -528 5 -139 25 -178 34 -265 63 -154 52 -272 120 -391 225 -110 99 -180 226 -229 420 -26 103 -28 114 -44 243 -6 41 -15 111 -22 155 -19 131 -18 1002 1 1225 5 58 12 157 15 220 3 63 8 131 10 150 4 31 16 183 31 400 2 41 7 86 9 100 3 14 7 68 10 120 3 52 8 106 10 120 2 14 7 59 10 100 3 41 10 116 15 165 5 50 14 144 20 210 6 66 15 165 20 220 10 100 21 228 40 433 9 100 17 203 40 482 19 224 30 367 39 495 24 319 32 418 41 535 5 69 14 193 20 275 6 83 15 211 20 285 30 429 63 989 80 1355 35 796 39 1206 14 1525 -25 307 -25 324 -16 337 14 21 295 100 472 132 55 11 69 13 190 31 181 27 281 33 575 39 313 6 479 -1 665 -28z"/>
</g>
</svg>